<svg id="fbe87565-f379-4ced-9b22-897e87873e8c" data-name="logo" xmlns="http://www.w3.org/2000/svg" viewBox="0 0 785.63 373.07"><defs><style>.a3f30429-5963-46a0-9be9-28695f1b17c1{fill:none;stroke:#fff;stroke-miterlimit:10;stroke-width:3px;}.b4232ab7-138f-4d54-a16a-c0a1f4ac23f9{font-size:74.25px;letter-spacing:0.03em;}.aed5bf87-d2f8-4564-947a-1edc32bff701,.b1837eb2-8414-4213-a740-2f4b8fb0e7c9,.b4232ab7-138f-4d54-a16a-c0a1f4ac23f9{fill:#fff;font-family:Montserrat-Light, Montserrat;font-weight:300;}.a86a9d05-c84a-4ec8-9fb3-6b4aa8e9fd19{letter-spacing:0.05em;}.f201b0e5-74e5-492f-8155-87f97bd2d38c{letter-spacing:0.04em;}.a33fa4c1-70ab-49ce-9e49-4821d86452b7{letter-spacing:0.03em;}.f83864c7-ecfc-4f0c-83f8-c8c7cd1ddfc6{letter-spacing:0.03em;}.b737d36b-cd1e-4b1f-b922-3fe20ee2ab39{letter-spacing:0.04em;}.bf78fcf4-c4f8-4d04-8e02-60b6390e12e2{letter-spacing:0.03em;}.a70b120b-ea1f-4826-a365-4fd9dacb2963{letter-spacing:0.07em;}.aed5bf87-d2f8-4564-947a-1edc32bff701{font-size:72.16px;letter-spacing:0.02em;}.ad939f2a-cae7-4c1b-80bf-ff45d85d6867{letter-spacing:0.01em;}.ac002198-117f-4c28-a8ad-5acc1a952903{letter-spacing:0.07em;}.a19eed0c-f7a8-4560-afb9-fcdbcd3c8be2{letter-spacing:0.04em;}.a3bb0973-e2dc-4623-9fa5-ba53b469094e{letter-spacing:0.02em;}.a3de588d-2bbb-4c59-bbb2-cc544e4ba9bd{letter-spacing:0em;}.aca7e3d3-7364-4c00-a3ca-47db190bd48b{letter-spacing:-0.01em;}.a35de8af-b215-4819-b34f-b848b6236fa5{letter-spacing:0.04em;}.b1837eb2-8414-4213-a740-2f4b8fb0e7c9{font-size:71.39px;letter-spacing:0.07em;}.b118eaf3-ab3c-4177-a116-106dcf53724e{letter-spacing:0.05em;}.eda3ea62-f2af-4839-85ee-8c07e5201583{letter-spacing:0.1em;}.bd097471-a5d2-4c61-8250-e138a98afd2e{letter-spacing:0.06em;}.a6798cf3-bd7c-4502-af62-785ce8f7b442{letter-spacing:0.06em;}.bb520181-4fa7-4a3b-afb1-02a5ac02e925{letter-spacing:0.05em;}.b97ab648-3f8b-4394-bd40-20b95677c156{letter-spacing:0.07em;}.a547f4ba-a846-4468-b84d-66d74e31a318{letter-spacing:0.09em;}</style></defs><title>white_Logo_USS</title><circle class="a3f30429-5963-46a0-9be9-28695f1b17c1" cx="169.29" cy="186.34" r="40"/><path class="a3f30429-5963-46a0-9be9-28695f1b17c1" d="M194.6,230.61" transform="translate(-10.6 -7.05)"/><path class="a3f30429-5963-46a0-9be9-28695f1b17c1" d="M194.6,230.61A78.49,78.49,0,1,1,144.15,82.07" transform="translate(-10.6 -7.05)"/><path class="a3f30429-5963-46a0-9be9-28695f1b17c1" d="M144,82.12" transform="translate(-10.6 -7.05)"/><path class="a3f30429-5963-46a0-9be9-28695f1b17c1" d="M144,82.12c15.22-5.09,33.68-8.59,50.6-8.59a152.55,152.55,0,1,1,0,305.09c-4.93,0-9.82-.24-14.63-.69" transform="translate(-10.6 -7.05)"/><path class="a3f30429-5963-46a0-9be9-28695f1b17c1" d="M144.1,82.09h0" transform="translate(-10.6 -7.05)"/><path class="a3f30429-5963-46a0-9be9-28695f1b17c1" d="M144.07,82.1h0" transform="translate(-10.6 -7.05)"/><path class="a3f30429-5963-46a0-9be9-28695f1b17c1" d="M144,82.12l.08,0" transform="translate(-10.6 -7.05)"/><path class="a3f30429-5963-46a0-9be9-28695f1b17c1" d="M166,155.85" transform="translate(-10.6 -7.05)"/><path class="a3f30429-5963-46a0-9be9-28695f1b17c1" d="M244,170.39A78.49,78.49,0,0,1,220.82,303" transform="translate(-10.6 -7.05)"/><path class="a3f30429-5963-46a0-9be9-28695f1b17c1" d="M166,155.85A78.62,78.62,0,0,1,244,170.39" transform="translate(-10.6 -7.05)"/><path class="a3f30429-5963-46a0-9be9-28695f1b17c1" d="M225.57,301A152.7,152.7,0,0,1,44.91,255.62" transform="translate(-10.6 -7.05)"/><path class="a3f30429-5963-46a0-9be9-28695f1b17c1" d="M44.91,255.62A152.55,152.55,0,0,1,164.65,8.55q7.68,0,15.17.75" transform="translate(-10.6 -7.05)"/><text class="b4232ab7-138f-4d54-a16a-c0a1f4ac23f9" transform="translate(383.24 116.86) scale(0.86 1)">U<tspan class="a86a9d05-c84a-4ec8-9fb3-6b4aa8e9fd19" x="61.05" y="0">k</tspan><tspan class="f201b0e5-74e5-492f-8155-87f97bd2d38c" x="108.19" y="0">r</tspan><tspan class="a33fa4c1-70ab-49ce-9e49-4821d86452b7" x="140.68" y="0">a</tspan><tspan class="f83864c7-ecfc-4f0c-83f8-c8c7cd1ddfc6" x="186.11" y="0">i</tspan><tspan class="a33fa4c1-70ab-49ce-9e49-4821d86452b7" x="207.76" y="0">n</tspan><tspan class="b737d36b-cd1e-4b1f-b922-3fe20ee2ab39" x="259.88" y="0">i</tspan><tspan class="bf78fcf4-c4f8-4d04-8e02-60b6390e12e2" x="281.87" y="0">a</tspan><tspan class="a70b120b-ea1f-4826-a365-4fd9dacb2963" x="327.51" y="0">n</tspan></text><text class="aed5bf87-d2f8-4564-947a-1edc32bff701" transform="translate(421.16 211.21)">S<tspan class="ad939f2a-cae7-4c1b-80bf-ff45d85d6867" x="45.69" y="0">o</tspan><tspan class="ac002198-117f-4c28-a8ad-5acc1a952903" x="90.95" y="0">f</tspan><tspan class="a19eed0c-f7a8-4560-afb9-fcdbcd3c8be2" x="119.62" y="0">t</tspan><tspan class="a3bb0973-e2dc-4623-9fa5-ba53b469094e" x="150.97" y="0">w</tspan><tspan class="a3de588d-2bbb-4c59-bbb2-cc544e4ba9bd" x="214.73" y="0">a</tspan><tspan class="aca7e3d3-7364-4c00-a3ca-47db190bd48b" x="256.64" y="0">r</tspan><tspan class="a35de8af-b215-4819-b34f-b848b6236fa5" x="284.01" y="0">e</tspan></text><text class="b1837eb2-8414-4213-a740-2f4b8fb0e7c9" transform="translate(459.34 306.59)">S<tspan class="b118eaf3-ab3c-4177-a116-106dcf53724e" x="48.51" y="0">e</tspan><tspan class="eda3ea62-f2af-4839-85ee-8c07e5201583" x="94.96" y="0">r</tspan><tspan class="bd097471-a5d2-4c61-8250-e138a98afd2e" x="130.2" y="0">v</tspan><tspan class="a6798cf3-bd7c-4502-af62-785ce8f7b442" x="172.5" y="0">i</tspan><tspan class="bb520181-4fa7-4a3b-afb1-02a5ac02e925" x="195.11" y="0">c</tspan><tspan class="b97ab648-3f8b-4394-bd40-20b95677c156" x="238.39" y="0">e</tspan><tspan class="a547f4ba-a846-4468-b84d-66d74e31a318" x="285.74" y="0">s</tspan></text></svg>